# xmcd
#
# Track frame offsets:
#	150
#	19567
#	38711
#	58875
#	76793
#	98086
#	116082
#	133226
#	153207
#	169940
#	188283
#	204429
#	220344
#	237358
#
# Disc length: 3453 seconds
#
# Revision: 0
# Processed by: cddbd v1.5.1PL0 Copyright (c) Steve Scherf et al.
# Submitted via: dBpowerAMP V4.0
#
DISCID=b30d7b0e
DTITLE=Gary Rex Tanner - Black Coffee
DYEAR=2000
DGENRE=Blues
TTITLE0=Roulette With The Blues
TTITLE1=Backstreet of Hell
TTITLE2=Kansas City Ripper
TTITLE3=Black Coffee
TTITLE4=Atlas Shrugged
TTITLE5=Against The Law
TTITLE6=Somebody at Home
TTITLE7=Beautiful Friend
TTITLE8=Bad Attitude
TTITLE9=She Just Walks That Way
TTITLE10=Tennessee
TTITLE11=Seattle Slew
TTITLE12=Pack a 45
TTITLE13=This Side of the Line
EXTD=
EXTT0=
EXTT1=
EXTT2=
EXTT3=
EXTT4=
EXTT5=
EXTT6=
EXTT7=
EXTT8=
EXTT9=
EXTT10=
EXTT11=
EXTT12=
EXTT13=
PLAYORDER=
